<svg width="56" height="53" viewBox="0 0 56 53" fill="none" xmlns="http://www.w3.org/2000/svg">
<path d="M2.64567 52V42.984H3.98967L8.69367 49.62V42.984H10.2057V52H8.86167L4.17167 45.378V52H2.64567ZM15.3436 52.14C14.1862 52.14 13.2902 51.8553 12.6556 51.286C12.0209 50.7167 11.7036 49.844 11.7036 48.668C11.7036 47.604 11.9742 46.764 12.5156 46.148C13.0569 45.532 13.8782 45.224 14.9796 45.224C15.9876 45.224 16.7436 45.49 17.2476 46.022C17.7609 46.5447 18.0176 47.2213 18.0176 48.052V49.284H13.1596C13.2342 49.928 13.4676 50.3713 13.8596 50.614C14.2516 50.8567 14.8489 50.978 15.6516 50.978C15.9876 50.978 16.3329 50.9453 16.6876 50.88C17.0422 50.8147 17.3502 50.7307 17.6116 50.628V51.748C17.3129 51.8787 16.9676 51.9767 16.5756 52.042C16.1929 52.1073 15.7822 52.14 15.3436 52.14ZM13.1596 48.29H16.6736V47.828C16.6736 47.3707 16.5476 47.016 16.2956 46.764C16.0436 46.5027 15.6189 46.372 15.0216 46.372C14.3122 46.372 13.8222 46.526 13.5516 46.834C13.2902 47.142 13.1596 47.6273 13.1596 48.29ZM20.3442 52L18.5942 45.364H20.1202L21.2682 50.194L22.5702 46.176V45.364H23.7322L25.1742 50.194L26.3222 45.364H27.8342L26.0982 52H24.6562L23.2422 47.66L21.8002 52H20.3442ZM32.5461 52V42.984H38.6781V44.174H34.0721V46.904H38.1601V48.08H34.0721V52H32.5461ZM40.2428 43.978V42.718H41.9088V43.978H40.2428ZM40.3688 52V46.526H39.3608L39.5008 45.364H41.8948V52H40.3688ZM45.327 52.14C44.7856 52.14 44.375 52.0093 44.095 51.748C43.815 51.4773 43.675 51.034 43.675 50.418V42.564H45.201V50.278C45.201 50.5393 45.2476 50.7167 45.341 50.81C45.4343 50.9033 45.5743 50.95 45.761 50.95C45.985 50.95 46.1996 50.922 46.405 50.866V51.972C46.2276 52.0373 46.055 52.0793 45.887 52.098C45.7283 52.126 45.5416 52.14 45.327 52.14ZM50.9588 52.14C49.8015 52.14 48.9055 51.8553 48.2708 51.286C47.6361 50.7167 47.3188 49.844 47.3188 48.668C47.3188 47.604 47.5895 46.764 48.1308 46.148C48.6721 45.532 49.4935 45.224 50.5948 45.224C51.6028 45.224 52.3588 45.49 52.8628 46.022C53.3761 46.5447 53.6328 47.2213 53.6328 48.052V49.284H48.7748C48.8495 49.928 49.0828 50.3713 49.4748 50.614C49.8668 50.8567 50.4641 50.978 51.2668 50.978C51.6028 50.978 51.9481 50.9453 52.3028 50.88C52.6575 50.8147 52.9655 50.7307 53.2268 50.628V51.748C52.9281 51.8787 52.5828 51.9767 52.1908 52.042C51.8081 52.1073 51.3975 52.14 50.9588 52.14ZM48.7748 48.29H52.2888V47.828C52.2888 47.3707 52.1628 47.016 51.9108 46.764C51.6588 46.5027 51.2341 46.372 50.6368 46.372C49.9275 46.372 49.4375 46.526 49.1668 46.834C48.9055 47.142 48.7748 47.6273 48.7748 48.29Z" fill="#373434"/>
<path d="M45.1463 18.5C45.1463 28.4589 37.3731 36.5 27.8232 36.5C18.2732 36.5 10.5 28.4589 10.5 18.5C10.5 8.54115 18.2732 0.5 27.8232 0.5C37.3731 0.5 45.1463 8.54115 45.1463 18.5Z" fill="#A74232" stroke="black"/>
<path d="M24.8284 27.92V21.488H18.1084V16.448H24.8284V9.872H29.9164V16.448H36.6364V21.488H29.9164V27.92H24.8284Z" fill="white"/>
</svg>
