<svg width="40" height="53" viewBox="0 0 40 53" fill="none" xmlns="http://www.w3.org/2000/svg">
<path d="M10.5 3.31239L38.9386 18.5L10.5 33.6876L10.5 3.31239Z" fill="#5DA688" stroke="black"/>
<path d="M8.51579 52V42.984H12.6598C13.6678 42.984 14.4005 43.2453 14.8578 43.768C15.3245 44.2813 15.5578 44.9813 15.5578 45.868C15.5578 46.5027 15.3991 47.044 15.0818 47.492C14.7645 47.94 14.3071 48.2527 13.7098 48.43C13.8778 48.5513 14.0085 48.682 14.1018 48.822C14.1951 48.962 14.2885 49.1487 14.3818 49.382L15.5158 52H13.9478L12.8418 49.48C12.7391 49.2373 12.6131 49.0647 12.4638 48.962C12.3238 48.8593 12.0811 48.808 11.7358 48.808H10.0418V52H8.51579ZM10.0418 47.576H12.2538C12.8045 47.576 13.2385 47.4407 13.5558 47.17C13.8731 46.8993 14.0318 46.4653 14.0318 45.868C14.0318 44.7387 13.4858 44.174 12.3938 44.174H10.0418V47.576ZM19.4547 52.14C18.6614 52.14 18.05 51.9207 17.6207 51.482C17.2007 51.0433 16.9907 50.3993 16.9907 49.55V45.364H18.5167V49.55C18.5167 50.0447 18.638 50.4087 18.8807 50.642C19.1234 50.8753 19.4967 50.992 20.0007 50.992C20.374 50.992 20.7194 50.922 21.0367 50.782C21.354 50.642 21.6294 50.4553 21.8627 50.222V45.364H23.3747V52H21.9887L21.9187 51.314C21.62 51.5473 21.2654 51.7433 20.8547 51.902C20.444 52.0607 19.9774 52.14 19.4547 52.14ZM25.1545 52V45.364H26.5545L26.6245 46.064C26.9231 45.8307 27.2778 45.6347 27.6885 45.476C28.1085 45.308 28.5705 45.224 29.0745 45.224C29.9331 45.224 30.5585 45.4247 30.9505 45.826C31.3425 46.2273 31.5385 46.8527 31.5385 47.702V52H30.0265V47.772C30.0265 47.2587 29.9191 46.8993 29.7045 46.694C29.4991 46.4887 29.1071 46.386 28.5285 46.386C28.1831 46.386 27.8425 46.456 27.5065 46.596C27.1798 46.736 26.9045 46.918 26.6805 47.142V52H25.1545Z" fill="#373434"/>
</svg>
